<mxfile host="app.diagrams.net" modified="2023-10-30T10:03:32.949Z" agent="Mozilla/5.0 (Windows NT 10.0; Win64; x64) AppleWebKit/537.36 (KHTML, like Gecko) Chrome/116.0.0.0 Safari/537.36" version="22.0.8" etag="2AFeglbYYM0YjMm-fiQO" type="github">
  <diagram name="第 1 页" id="nfltuflzSM5zvI4slr5d">
    <mxGraphModel>
      <root>
        <mxCell id="0" />
        <mxCell id="1" parent="0" />
      </root>
    </mxGraphModel>
  </diagram>
</mxfile>
